<?xml version="1.0" encoding="utf-8"?>
<!-- Generator: Adobe Illustrator 24.2.0, SVG Export Plug-In . SVG Version: 6.00 Build 0)  -->
<svg version="1.1" id="Layer_1" xmlns="http://www.w3.org/2000/svg" xmlns:xlink="http://www.w3.org/1999/xlink" x="0px" y="0px"
	 viewBox="0 0 433.3 256" style="enable-background:new 0 0 433.3 256;" xml:space="preserve">
<style type="text/css">
	.st0{fill:#3969E2;}
	.st1{fill:#F51C6A;}
	.st2{fill:#D4D7DC;}
	.st3{font-family:'MyriadPro-Regular';}
	.st4{font-size:120px;}
</style>
<path class="st0" d="M99.5,151.8c0.3,1.2,0.5,2.5,0.8,3.7C50.4,161.8,0,181.6,0,181.6c16.4-44,36.9-83.7,63-117.7
	C80,90.3,92.2,119.8,99.5,151.8L99.5,151.8z M193,63.9c-17.1,26.5-29.4,56.2-36.7,88.4c-0.2,1-0.4,2.1-0.7,3.2
	c49.9,6.3,100.3,26.1,100.3,26.1C239.6,137.6,219.1,97.9,193,63.9z"/>
<path class="st1" d="M120.7,256h14.5c-2.9-38-0.6-74,7-107.4c8-35.4,21.9-67.9,41.2-96.7C167.1,32.4,148.7,15,128,0
	c-20.7,15-39.1,32.4-55.4,51.9c19.3,28.8,33.2,61.3,41.2,96.7C121.3,182,123.6,218,120.7,256z"/>
<text transform="matrix(1 0 0 1 363.9997 177.89)" class="st2 st3 st4">+</text>
</svg>
