<?xml version="1.0" encoding="utf-8"?>
<!-- Generator: Adobe Illustrator 24.2.0, SVG Export Plug-In . SVG Version: 6.00 Build 0)  -->
<svg version="1.1" id="Layer_1" xmlns="http://www.w3.org/2000/svg" xmlns:xlink="http://www.w3.org/1999/xlink" x="0px" y="0px"
	 viewBox="0 0 22.2 22.2" style="enable-background:new 0 0 22.2 22.2;" xml:space="preserve">
<style type="text/css">
	.st0{fill:#666766;}
</style>
<g>
	<path class="st0" d="M21,0h-6.1c-0.6,0-1.1,0.5-1.1,1.1c0,0.6,0.5,1.1,1.1,1.1h3.6l-6.7,6.7c-0.4,0.4-0.4,1.2,0,1.6
		c0.4,0.4,1.1,0.4,1.6-0.1L20,3.8v3.5c0,0.6,0.5,1.1,1.1,1.1c0.6,0,1.1-0.5,1.1-1.1V1.2C22.2,0.5,21.7,0,21,0z"/>
	<path class="st0" d="M21,11.2L21,11.2c-0.6,0-1.1,0.5-1.1,1.1c0,3.1-0.2,4.9-1.4,6.1c-1.4,1.4-3.6,1.4-7.4,1.4s-6,0-7.4-1.4
		c-1.4-1.4-1.4-3.5-1.4-7.4s0-6,1.4-7.4c1.2-1.2,3-1.4,6.1-1.4c0.6,0,1.1-0.5,1.1-1.1c0-0.6-0.5-1.2-1.2-1.1c-4,0-6.4,0.2-8,1.8
		C0,3.5,0,6.2,0,11.1s0,7.6,1.8,9.3s4.5,1.8,9.3,1.8s7.6,0,9.3-1.8c1.6-1.6,1.8-4,1.8-8C22.2,11.8,21.7,11.2,21,11.2z"/>
</g>
</svg>
